<svg width="65" height="65" viewBox="0 0 65 65" fill="none" xmlns="http://www.w3.org/2000/svg">
<path fill-rule="evenodd" clip-rule="evenodd" d="M32.5 59.5827C47.4577 59.5827 59.5833 47.4571 59.5833 32.4993C59.5833 17.5416 47.4577 5.41602 32.5 5.41602C17.5422 5.41602 5.41663 17.5416 5.41663 32.4993C5.41663 47.4571 17.5422 59.5827 32.5 59.5827ZM26.2759 23.4027C25.4827 22.6095 24.1966 22.6095 23.4033 23.4027C22.6101 24.196 22.6101 25.4821 23.4033 26.2753L29.6273 32.4993L23.4033 38.7234C22.6101 39.5166 22.6101 40.8027 23.4033 41.596C24.1966 42.3892 25.4827 42.3892 26.2759 41.596L32.4999 35.372L38.724 41.596C39.5172 42.3892 40.8033 42.3892 41.5966 41.596C42.3898 40.8027 42.3898 39.5166 41.5966 38.7234L35.3726 32.4993L41.5966 26.2753C42.3898 25.4821 42.3898 24.196 41.5966 23.4027C40.8033 22.6095 39.5172 22.6095 38.724 23.4027L32.4999 29.6267L26.2759 23.4027Z" fill="#AD79FF"/>
</svg>
