<svg width="32" height="32" viewBox="0 0 32 32" fill="none" xmlns="http://www.w3.org/2000/svg">
<path d="M21.4709 20.666H10.1376C4.80411 20.666 2.80415 14.666 8.13757 12.666C5.4709 2.66601 20.8042 -1.33399 22.1376 9.99934C28.8042 9.99935 29.4709 19.9993 21.4709 20.666Z" fill="white"/>
<path d="M20.3162 27.7173L17 26.6119V20.666H15V26.6119L11.6838 27.7173C11.1598 27.892 10.8767 28.4583 11.0513 28.9822C11.226 29.5062 11.7923 29.7893 12.3162 29.6147L16 28.3868L19.6838 29.6147C20.2077 29.7893 20.774 29.5062 20.9487 28.9822C21.1233 28.4583 20.8402 27.892 20.3162 27.7173Z" fill="white"/>
</svg>
