<svg width="32" height="32" viewBox="0 0 32 32" fill="none" xmlns="http://www.w3.org/2000/svg">
<path d="M12 12.6667C12.3682 12.6667 12.6667 12.3682 12.6667 12C12.6667 11.6318 12.3682 11.3333 12 11.3333C11.6318 11.3333 11.3333 11.6318 11.3333 12C11.3333 12.3682 11.6318 12.6667 12 12.6667Z" fill="white"/>
<path fill-rule="evenodd" clip-rule="evenodd" d="M28.7055 13.6906C29.5426 15.1197 29.5426 16.8803 28.7055 18.3094L25.9264 23.0539L22.3709 17.2512C21.0681 15.0216 17.7625 15.2806 16.8251 17.6911L15.3536 21.4747C14.9954 22.3961 13.7346 22.5032 13.226 21.6555C12.1669 19.8904 9.80177 19.6181 8.35729 20.9248C8.20471 21.0629 8.07192 21.207 7.96824 21.3205L7.93511 21.3568C7.83946 21.4617 7.76893 21.539 7.69456 21.6111L6.12154 23.1357L3.29447 18.3094C2.45738 16.8803 2.45738 15.1197 3.29447 13.6906L7.6181 6.3094C8.45519 4.88034 10.0022 4 11.6764 4H20.3236C21.9978 4 23.5448 4.88034 24.3819 6.3094L28.7055 13.6906ZM12 14.6667C13.4727 14.6667 14.6667 13.4728 14.6667 12C14.6667 10.5272 13.4727 9.33333 12 9.33333C10.5272 9.33333 9.33332 10.5272 9.33332 12C9.33332 13.4728 10.5272 14.6667 12 14.6667Z" fill="white"/>
<path d="M7.16221 24.9123L7.61809 25.6906C8.45518 27.1197 10.0022 28 11.6764 28L20.3236 28C21.9978 28 23.5448 27.1197 24.3819 25.6906L24.78 25.011L20.6596 18.2864L20.6469 18.265C20.1892 17.4744 19.0202 17.5646 18.6891 18.416L17.2177 22.1996C16.2567 24.6707 12.8751 24.9581 11.511 22.6845C11.1188 22.0308 10.2359 21.9223 9.69902 22.408C9.6244 22.4755 9.54838 22.5561 9.44505 22.6693L9.41207 22.7054C9.32228 22.804 9.20835 22.9291 9.08652 23.0472L7.16221 24.9123Z" fill="white"/>
</svg>
