<svg width="25" height="24" viewBox="0 0 25 24" fill="none" xmlns="http://www.w3.org/2000/svg">
<path fill-rule="evenodd" clip-rule="evenodd" d="M22.5 12C22.5 8.26154 22.5 6.3923 21.6962 5C21.1695 4.08788 20.4121 3.33046 19.5 2.80385C18.1077 2 16.2385 2 12.5 2C8.76154 2 6.8923 2 5.5 2.80385C4.58788 3.33046 3.83046 4.08788 3.30385 5C2.5 6.3923 2.5 8.26154 2.5 12C2.5 15.7385 2.5 17.6077 3.30385 19C3.83046 19.9121 4.58788 20.6695 5.5 21.1962C6.8923 22 8.76154 22 12.5 22C16.2385 22 18.1077 22 19.5 21.1962C20.4121 20.6695 21.1695 19.9121 21.6962 19C22.5 17.6077 22.5 15.7385 22.5 12ZM9.03033 10.4697C8.73744 10.1768 8.26256 10.1768 7.96967 10.4697C7.67678 10.7626 7.67678 11.2374 7.96967 11.5303L10.5555 14.1161C11.6294 15.1901 13.3706 15.1901 14.4445 14.1161L17.0303 11.5303C17.3232 11.2374 17.3232 10.7626 17.0303 10.4697C16.7374 10.1768 16.2626 10.1768 15.9697 10.4697L13.3839 13.0555C12.8957 13.5436 12.1043 13.5436 11.6161 13.0555L9.03033 10.4697Z" fill="#AD79FF"/>
</svg>
