<svg width="32" height="32" viewBox="0 0 32 32" fill="none" xmlns="http://www.w3.org/2000/svg">
<path fill-rule="evenodd" clip-rule="evenodd" d="M15.3333 5.33301H9.33333C6.38781 5.33301 4 7.72082 4 10.6663V21.333C4 24.2785 6.38781 26.6663 9.33333 26.6663H22.6667C25.6122 26.6663 28 24.2785 28 21.333V14.6663C28 11.7208 25.6122 9.33301 22.6667 9.33301H19.3333C18.2288 9.33301 17.3333 8.43758 17.3333 7.33301C17.3333 6.22844 16.4379 5.33301 15.3333 5.33301ZM18.6748 11.9138C19.0905 11.5501 19.7222 11.5922 20.0859 12.0078L22.6621 14.9521L20.0859 17.8963C19.7222 18.3119 19.0905 18.354 18.6748 17.9903C18.2592 17.6267 18.2171 16.9949 18.5808 16.5793L19.1296 15.9521H14.6667C14.1144 15.9521 13.6667 15.5043 13.6667 14.9521C13.6667 14.3998 14.1144 13.9521 14.6667 13.9521H19.1296L18.5808 13.3248C18.2171 12.9092 18.2592 12.2774 18.6748 11.9138ZM12.0859 19.4199C12.4496 19.0043 12.4075 18.3725 11.9918 18.0088C11.5762 17.6451 10.9444 17.6873 10.5808 18.1029L8.00457 21.0471L10.5808 23.9913C10.9444 24.407 11.5762 24.4491 11.9918 24.0854C12.4075 23.7217 12.4496 23.09 12.0859 22.6743L11.5371 22.0471H16C16.5523 22.0471 17 21.5994 17 21.0471C17 20.4948 16.5523 20.0471 16 20.0471H11.5371L12.0859 19.4199Z" fill="white"/>
</svg>
