<svg width="22" height="23" viewBox="0 0 22 23" fill="none" xmlns="http://www.w3.org/2000/svg">
<path fill-rule="evenodd" clip-rule="evenodd" d="M1.83932 11.5005C1.83932 8.0758 1.83932 6.36347 2.5757 5.08803C3.05811 4.25248 3.75196 3.55863 4.58751 3.07622C5.86295 2.33984 7.57529 2.33984 11 2.33984C14.4246 2.33984 16.137 2.33984 17.4124 3.07622C18.2479 3.55863 18.9418 4.25248 19.4242 5.08803C20.1606 6.36347 20.1606 8.0758 20.1606 11.5005C20.1606 14.9251 20.1606 16.6375 19.4242 17.9129C18.9418 18.7485 18.2479 19.4423 17.4124 19.9247C16.137 20.6611 14.4246 20.6611 11 20.6611C7.57529 20.6611 5.86295 20.6611 4.58751 19.9247C3.75196 19.4423 3.05811 18.7485 2.5757 17.9129C1.83932 16.6375 1.83932 14.9251 1.83932 11.5005ZM11.9393 17.5466V11.8158C12.0546 11.6362 12.2066 11.4966 12.3952 11.3968C12.5839 11.2971 12.8144 11.2472 13.0869 11.2472C13.3437 11.2472 13.5612 11.2796 13.7394 11.3444C13.9175 11.4093 14.0538 11.529 14.1481 11.7036C14.2425 11.8731 14.2896 12.12 14.2896 12.4442V17.5466H16.9544V12.4517C16.9544 11.8632 16.8889 11.3694 16.7578 10.9704C16.6321 10.5664 16.4487 10.2422 16.2076 9.99779C15.9718 9.75339 15.6888 9.57633 15.3587 9.4666C15.0338 9.35687 14.6748 9.30201 14.2818 9.30201C13.7892 9.30201 13.3411 9.39179 12.9376 9.57134C12.5393 9.74591 12.1961 10.0028 11.9079 10.3419C11.8932 10.3592 11.8786 10.3767 11.8643 10.3944L11.7742 9.45164H9.29027V17.5466H11.9393ZM7.70243 9.45164V17.5466H5.04554V9.45164H7.70243ZM6.41966 8.38577C7.22915 8.38577 7.88536 7.72955 7.88536 6.92007C7.88536 6.11058 7.22915 5.45437 6.41966 5.45437C5.61018 5.45437 4.95396 6.11058 4.95396 6.92007C4.95396 7.72955 5.61018 8.38577 6.41966 8.38577Z" fill="white"/>
</svg>
