<svg width="27" height="27" viewBox="0 0 27 27" fill="none" xmlns="http://www.w3.org/2000/svg">
<path fill-rule="evenodd" clip-rule="evenodd" d="M2.59189 13.3879C2.59189 9.3832 2.59189 7.38086 3.45298 5.88941C4.01709 4.91234 4.82845 4.10098 5.80552 3.53687C7.29697 2.67578 9.2993 2.67578 13.304 2.67578C17.3087 2.67578 19.311 2.67578 20.8024 3.53687C21.7795 4.10098 22.5909 4.91234 23.155 5.88941C24.0161 7.38086 24.0161 9.3832 24.0161 13.3879C24.0161 17.3925 24.0161 19.3949 23.155 20.8863C22.5909 21.8634 21.7795 22.6748 20.8024 23.2389C19.311 24.1 17.3087 24.1 13.304 24.1C9.2993 24.1 7.29697 24.1 5.80552 23.2389C4.82845 22.6748 4.01709 21.8634 3.45298 20.8863C2.59189 19.3949 2.59189 17.3925 2.59189 13.3879ZM14.4024 20.458V13.7566C14.5372 13.5466 14.7149 13.3833 14.9355 13.2667C15.1561 13.15 15.4258 13.0917 15.7444 13.0917C16.0447 13.0917 16.299 13.1296 16.5074 13.2054C16.7157 13.2812 16.875 13.4212 16.9853 13.6254C17.0956 13.8237 17.1508 14.1124 17.1508 14.4915V20.458H20.2668V14.5002C20.2668 13.812 20.1902 13.2346 20.037 12.768C19.89 12.2956 19.6755 11.9165 19.3936 11.6307C19.1179 11.3449 18.7869 11.1379 18.4009 11.0095C18.021 10.8812 17.6012 10.8171 17.1416 10.8171C16.5656 10.8171 16.0416 10.9221 15.5698 11.132C15.1041 11.3362 14.7027 11.6365 14.3656 12.0331C14.3485 12.0533 14.3315 12.0738 14.3147 12.0945L14.2094 10.992H11.3047V20.458H14.4024ZM9.44798 10.992V20.458H6.34112V10.992H9.44798ZM7.94796 9.74566C8.89454 9.74566 9.66189 8.9783 9.66189 8.03172C9.66189 7.08514 8.89454 6.31779 7.94796 6.31779C7.00138 6.31779 6.23403 7.08514 6.23403 8.03172C6.23403 8.9783 7.00138 9.74566 7.94796 9.74566Z" fill="white"/>
</svg>
